# xmcd CD database file
#
# Track frame offsets:
#	150
#	15029
#	28508
#	43980
#	54176
#	68330
#	82797
#	96848
#	109144
#	124109
#	135490
#	149641
#	164319
#	180611
#	192872
#	208691
#
# Disc length: 2992 seconds
#
# Revision: 0
# Processed by: cddbd v1.5.2PL0 Copyright (c) Steve Scherf et al.
# Submitted via: CDex 1.70beta2
#
DISCID=cc0bae10
DTITLE=Smith, R. Harlan, wt. Chris Nielson - Cdn. AB - Stolen Moments
DYEAR=2004
DGENRE=Country
TTITLE0=Lovin' You, Lovin' Me
TTITLE1=Sweetheart
TTITLE2=Friendly Persuasion
TTITLE3=Lover Please
TTITLE4=Meant To Be
TTITLE5=Stolen Moments
TTITLE6=We Stayed To See Forever End
TTITLE7=Una Paloma Blanca
TTITLE8=Easy Feelin' Dream
TTITLE9=You've Got It All Wrong
TTITLE10=Hold On To MY Heart
TTITLE11=Otta Here
TTITLE12=Amazing grace
TTITLE13=Old Rugged Cross
TTITLE14=There's Just One Light
TTITLE15=May The Good Lord Bless and Keep You
EXTD=YEAR: 2004
EXTT0=
EXTT1=
EXTT2=
EXTT3=
EXTT4=
EXTT5=
EXTT6=
EXTT7=
EXTT8=
EXTT9=
EXTT10=
EXTT11=
EXTT12=
EXTT13=
EXTT14=
EXTT15=
PLAYORDER=
